<?xml version="1.0" encoding="utf-8" ?>
<svg baseProfile="tiny" height="1024" version="1.2" width="1024" xmlns="http://www.w3.org/2000/svg" xmlns:ev="http://www.w3.org/2001/xml-events" xmlns:xlink="http://www.w3.org/1999/xlink"><defs /><path d="M 253,542 L 253,543 Z" fill="black" /><path d="M 296,493 L 297,493 Z" fill="black" /><path d="M 293,493 L 294,493 Z" fill="black" /><path d="M 541,475 L 543,475 Z" fill="black" /><path d="M 538,475 L 539,475 Z" fill="black" /><path d="M 528,475 L 531,475 Z" fill="black" /><path d="M 521,475 L 525,475 Z" fill="black" /><path d="M 515,475 L 516,475 Z" fill="black" /><path d="M 504,475 L 513,475 Z" fill="black" /><path d="M 495,475 L 501,475 Z" fill="black" /><path d="M 488,475 L 493,475 Z" fill="black" /><path d="M 480,475 L 485,475 Z" fill="black" /><path d="M 475,475 L 478,475 Z" fill="black" /><path d="M 465,475 L 473,475 Z" fill="black" /><path d="M 459,475 L 461,475 Z" fill="black" /><path d="M 452,475 L 457,475 Z" fill="black" /><path d="M 440,475 L 448,475 Z" fill="black" /><path d="M 435,475 L 437,475 Z" fill="black" /><path d="M 293,456 L 295,456 Z" fill="black" /><path d="M 532,423 L 531,424 L 529,424 L 528,425 L 527,425 L 526,426 L 525,426 L 522,429 L 522,430 L 520,432 L 520,433 L 519,434 L 519,445 L 521,447 L 521,448 L 531,458 L 531,459 L 548,476 L 547,477 L 432,477 L 431,478 L 429,478 L 428,479 L 427,479 L 425,481 L 424,481 L 422,483 L 422,484 L 420,486 L 420,488 L 419,489 L 419,499 L 420,500 L 420,501 L 421,502 L 421,503 L 423,505 L 423,506 L 424,506 L 426,508 L 427,508 L 428,509 L 429,509 L 430,510 L 547,510 L 548,511 L 548,512 L 547,513 L 546,513 L 546,514 L 544,516 L 543,516 L 543,517 L 521,539 L 521,540 L 520,541 L 520,542 L 519,543 L 519,545 L 518,546 L 518,550 L 519,551 L 519,553 L 520,554 L 520,555 L 521,556 L 521,557 L 525,561 L 526,561 L 527,562 L 528,562 L 529,563 L 532,563 L 533,564 L 535,564 L 536,563 L 539,563 L 540,562 L 541,562 L 542,561 L 543,561 L 571,533 L 571,532 L 572,531 L 573,531 L 573,530 L 596,507 L 597,507 L 600,504 L 600,503 L 602,501 L 602,499 L 603,498 L 603,489 L 602,488 L 602,487 L 601,486 L 601,485 L 580,464 L 580,463 L 542,425 L 541,425 L 540,424 L 538,424 L 537,423 Z" fill="black" /><path d="M 309,405 L 311,405 Z" fill="black" /><path d="M 273,324 L 275,324 Z" fill="black" /><path d="M 630,291 L 629,292 L 628,292 L 627,293 L 626,293 L 621,298 L 621,299 L 620,300 L 620,301 L 619,302 L 619,304 L 618,305 L 618,555 L 619,556 L 619,568 L 620,569 L 620,576 L 621,577 L 621,581 L 622,582 L 622,586 L 623,587 L 623,590 L 624,591 L 624,594 L 625,595 L 625,598 L 626,599 L 626,601 L 627,602 L 627,604 L 628,605 L 628,606 L 629,607 L 629,609 L 630,610 L 630,611 L 631,612 L 631,614 L 632,615 L 632,616 L 633,617 L 633,618 L 634,619 L 634,620 L 635,621 L 635,622 L 636,623 L 636,624 L 637,625 L 637,626 L 638,627 L 638,628 L 639,629 L 639,630 L 641,632 L 641,633 L 643,635 L 643,636 L 644,637 L 644,638 L 646,640 L 646,641 L 649,644 L 649,645 L 652,648 L 652,649 L 655,652 L 655,653 L 662,660 L 662,661 L 673,672 L 674,672 L 679,677 L 680,677 L 684,681 L 685,681 L 688,684 L 689,684 L 691,686 L 692,686 L 694,688 L 695,688 L 697,690 L 698,690 L 699,691 L 700,691 L 702,693 L 703,693 L 704,694 L 705,694 L 706,695 L 707,695 L 708,696 L 709,696 L 710,697 L 711,697 L 712,698 L 713,698 L 714,699 L 715,699 L 716,700 L 717,700 L 718,701 L 720,701 L 721,702 L 723,702 L 724,703 L 725,703 L 726,704 L 728,704 L 729,705 L 731,705 L 732,706 L 734,706 L 735,707 L 738,707 L 739,708 L 742,708 L 743,709 L 747,709 L 748,710 L 752,710 L 753,711 L 759,711 L 760,712 L 770,712 L 771,713 L 789,713 L 790,712 L 800,712 L 801,711 L 807,711 L 808,710 L 813,710 L 814,709 L 818,709 L 819,708 L 822,708 L 823,707 L 825,707 L 826,706 L 829,706 L 830,705 L 832,705 L 833,704 L 835,704 L 836,703 L 837,703 L 838,702 L 840,702 L 841,701 L 842,701 L 843,700 L 845,700 L 846,699 L 847,699 L 848,698 L 849,698 L 850,697 L 851,697 L 852,696 L 853,696 L 854,695 L 855,695 L 856,694 L 857,694 L 858,693 L 859,693 L 860,692 L 861,692 L 862,691 L 863,691 L 865,689 L 866,689 L 867,688 L 868,688 L 870,686 L 871,686 L 874,683 L 875,683 L 878,680 L 879,680 L 883,676 L 884,676 L 904,656 L 904,655 L 908,651 L 908,650 L 911,647 L 911,646 L 913,644 L 913,643 L 915,641 L 915,640 L 917,638 L 917,637 L 919,635 L 919,634 L 920,633 L 920,632 L 922,630 L 922,629 L 923,628 L 923,627 L 924,626 L 924,625 L 925,624 L 925,623 L 926,622 L 926,621 L 927,620 L 927,619 L 928,618 L 928,617 L 929,616 L 929,614 L 930,613 L 930,612 L 931,611 L 931,609 L 932,608 L 932,607 L 933,606 L 933,604 L 934,603 L 934,601 L 935,600 L 935,598 L 936,597 L 936,594 L 937,593 L 937,591 L 938,590 L 938,586 L 939,585 L 939,581 L 940,580 L 940,576 L 941,575 L 941,568 L 942,567 L 942,304 L 941,303 L 941,301 L 940,300 L 940,299 L 939,298 L 939,297 L 936,294 L 935,294 L 934,293 L 933,293 L 932,292 L 931,292 L 930,291 L 844,291 L 843,292 L 841,292 L 839,294 L 838,294 L 835,297 L 835,298 L 834,299 L 834,300 L 833,301 L 833,303 L 832,304 L 832,557 L 831,558 L 831,565 L 830,566 L 830,569 L 829,570 L 829,573 L 828,574 L 828,575 L 827,576 L 827,578 L 825,580 L 825,581 L 824,582 L 824,583 L 820,587 L 820,588 L 815,593 L 814,593 L 811,596 L 810,596 L 808,598 L 807,598 L 806,599 L 805,599 L 804,600 L 802,600 L 801,601 L 799,601 L 798,602 L 796,602 L 795,603 L 789,603 L 788,604 L 774,604 L 773,603 L 768,603 L 767,602 L 764,602 L 763,601 L 762,601 L 761,600 L 759,600 L 758,599 L 757,599 L 756,598 L 755,598 L 753,596 L 752,596 L 742,586 L 742,585 L 740,583 L 740,582 L 739,581 L 739,580 L 738,579 L 738,578 L 737,577 L 737,576 L 736,575 L 736,574 L 735,573 L 735,571 L 734,570 L 734,568 L 733,567 L 733,564 L 732,563 L 732,559 L 731,558 L 731,549 L 730,548 L 730,303 L 729,302 L 729,300 L 727,298 L 727,297 L 724,294 L 723,294 L 722,293 L 721,293 L 720,292 L 719,292 L 718,291 Z" fill="black" /><path d="M 270,288 L 269,289 L 257,289 L 256,290 L 250,290 L 249,291 L 243,291 L 242,292 L 238,292 L 237,293 L 234,293 L 233,294 L 229,294 L 228,295 L 225,295 L 224,296 L 222,296 L 221,297 L 219,297 L 218,298 L 216,298 L 215,299 L 212,299 L 211,300 L 210,300 L 209,301 L 207,301 L 206,302 L 204,302 L 203,303 L 202,303 L 201,304 L 200,304 L 199,305 L 197,305 L 196,306 L 195,306 L 194,307 L 193,307 L 192,308 L 191,308 L 190,309 L 189,309 L 188,310 L 187,310 L 186,311 L 185,311 L 184,312 L 183,312 L 182,313 L 181,313 L 180,314 L 179,314 L 178,315 L 177,315 L 175,317 L 174,317 L 172,319 L 171,319 L 170,320 L 169,320 L 167,322 L 166,322 L 163,325 L 162,325 L 160,327 L 159,327 L 155,331 L 154,331 L 150,335 L 149,335 L 127,357 L 127,358 L 122,363 L 122,364 L 119,367 L 119,368 L 116,371 L 116,372 L 114,374 L 114,375 L 112,377 L 112,378 L 110,380 L 110,381 L 108,383 L 108,384 L 106,386 L 106,387 L 105,388 L 105,389 L 104,390 L 104,391 L 102,393 L 102,394 L 101,395 L 101,396 L 100,397 L 100,398 L 99,399 L 99,400 L 98,401 L 98,402 L 97,403 L 97,404 L 96,405 L 96,406 L 95,407 L 95,408 L 94,409 L 94,410 L 93,411 L 93,413 L 92,414 L 92,415 L 91,416 L 91,417 L 90,418 L 90,420 L 89,421 L 89,422 L 88,423 L 88,425 L 87,426 L 87,428 L 86,429 L 86,431 L 85,432 L 85,434 L 84,435 L 84,437 L 83,438 L 83,441 L 82,442 L 82,445 L 81,446 L 81,449 L 80,450 L 80,453 L 79,454 L 79,458 L 78,459 L 78,464 L 77,465 L 77,472 L 76,473 L 76,485 L 75,486 L 75,507 L 76,508 L 76,520 L 77,521 L 77,528 L 78,529 L 78,534 L 79,535 L 79,539 L 80,540 L 80,544 L 81,545 L 81,548 L 82,549 L 82,552 L 83,553 L 83,555 L 84,556 L 84,558 L 85,559 L 85,561 L 86,562 L 86,564 L 87,565 L 87,567 L 88,568 L 88,570 L 89,571 L 89,573 L 90,574 L 90,575 L 91,576 L 91,578 L 92,579 L 92,580 L 93,581 L 93,582 L 94,583 L 94,584 L 95,585 L 95,586 L 96,587 L 96,589 L 97,590 L 97,591 L 98,592 L 98,593 L 100,595 L 100,596 L 101,597 L 101,598 L 102,599 L 102,600 L 103,601 L 103,602 L 105,604 L 105,605 L 106,606 L 106,607 L 108,609 L 108,610 L 110,612 L 110,613 L 112,615 L 112,616 L 114,618 L 114,619 L 117,622 L 117,623 L 120,626 L 120,627 L 124,631 L 124,632 L 131,639 L 131,640 L 144,653 L 145,653 L 151,659 L 152,659 L 157,664 L 158,664 L 161,667 L 162,667 L 164,669 L 165,669 L 168,672 L 169,672 L 170,673 L 171,673 L 173,675 L 174,675 L 176,677 L 177,677 L 178,678 L 179,678 L 181,680 L 182,680 L 183,681 L 184,681 L 185,682 L 186,682 L 187,683 L 188,683 L 189,684 L 190,684 L 191,685 L 192,685 L 193,686 L 194,686 L 195,687 L 196,687 L 197,688 L 198,688 L 199,689 L 201,689 L 202,690 L 203,690 L 204,691 L 205,691 L 206,692 L 208,692 L 209,693 L 211,693 L 212,694 L 213,694 L 214,695 L 216,695 L 217,696 L 219,696 L 220,697 L 223,697 L 224,698 L 226,698 L 227,699 L 230,699 L 231,700 L 234,700 L 235,701 L 239,701 L 240,702 L 244,702 L 245,703 L 251,703 L 252,704 L 259,704 L 260,705 L 300,705 L 301,704 L 309,704 L 310,703 L 315,703 L 316,702 L 320,702 L 321,701 L 325,701 L 326,700 L 329,700 L 330,699 L 333,699 L 334,698 L 337,698 L 338,697 L 340,697 L 341,696 L 343,696 L 344,695 L 346,695 L 347,694 L 349,694 L 350,693 L 352,693 L 353,692 L 354,692 L 355,691 L 357,691 L 358,690 L 359,690 L 360,689 L 361,689 L 362,688 L 364,688 L 365,687 L 366,687 L 367,686 L 368,686 L 369,685 L 370,685 L 371,684 L 372,684 L 373,683 L 374,683 L 375,682 L 376,682 L 378,680 L 379,680 L 380,679 L 381,679 L 382,678 L 383,678 L 385,676 L 386,676 L 387,675 L 388,675 L 390,673 L 391,673 L 393,671 L 394,671 L 396,669 L 397,669 L 400,666 L 401,666 L 404,663 L 405,663 L 409,659 L 410,659 L 418,651 L 419,651 L 427,643 L 427,642 L 435,634 L 435,633 L 439,629 L 439,628 L 443,624 L 443,623 L 445,621 L 445,620 L 447,618 L 447,617 L 449,615 L 449,614 L 451,612 L 451,611 L 453,609 L 453,608 L 454,607 L 454,606 L 456,604 L 456,603 L 457,602 L 457,601 L 458,600 L 458,599 L 460,597 L 460,596 L 461,595 L 461,594 L 462,593 L 462,592 L 463,591 L 463,590 L 464,589 L 464,588 L 465,587 L 465,586 L 466,585 L 466,583 L 467,582 L 467,581 L 468,580 L 468,579 L 469,578 L 469,576 L 470,575 L 470,574 L 471,573 L 471,571 L 472,570 L 472,568 L 473,567 L 473,566 L 474,565 L 474,563 L 475,562 L 475,560 L 476,559 L 476,556 L 477,555 L 477,553 L 478,552 L 478,542 L 477,541 L 477,539 L 475,537 L 475,536 L 472,533 L 471,533 L 470,532 L 469,532 L 468,531 L 467,531 L 466,530 L 459,530 L 458,531 L 456,531 L 455,532 L 454,532 L 449,537 L 449,538 L 448,539 L 448,541 L 447,542 L 447,545 L 446,546 L 446,549 L 445,550 L 445,552 L 444,553 L 444,555 L 443,556 L 443,558 L 442,559 L 442,560 L 441,561 L 441,563 L 440,564 L 440,565 L 439,566 L 439,568 L 438,569 L 438,570 L 437,571 L 437,572 L 436,573 L 436,574 L 435,575 L 435,577 L 434,578 L 434,579 L 432,581 L 432,582 L 431,583 L 431,584 L 430,585 L 430,586 L 429,587 L 429,588 L 428,589 L 428,590 L 426,592 L 426,593 L 424,595 L 424,596 L 422,598 L 422,599 L 420,601 L 420,602 L 417,605 L 417,606 L 411,612 L 411,613 L 407,617 L 405,617 L 404,618 L 402,618 L 401,619 L 399,619 L 398,620 L 395,620 L 394,621 L 390,621 L 389,622 L 384,622 L 383,623 L 374,623 L 373,624 L 354,624 L 353,623 L 344,623 L 343,622 L 338,622 L 337,621 L 333,621 L 332,620 L 329,620 L 328,619 L 326,619 L 325,618 L 322,618 L 321,617 L 319,617 L 318,616 L 317,616 L 316,615 L 314,615 L 313,614 L 311,614 L 310,613 L 309,613 L 308,612 L 307,612 L 306,611 L 305,611 L 304,610 L 303,610 L 302,609 L 301,609 L 300,608 L 299,608 L 298,607 L 297,607 L 295,605 L 294,605 L 292,603 L 291,603 L 289,601 L 288,601 L 285,598 L 284,598 L 279,593 L 278,593 L 271,586 L 271,585 L 266,580 L 266,579 L 263,576 L 263,575 L 261,573 L 261,572 L 260,571 L 260,570 L 259,569 L 259,568 L 258,567 L 258,566 L 257,565 L 257,564 L 256,563 L 256,562 L 255,561 L 255,560 L 254,559 L 254,557 L 253,556 L 253,553 L 252,552 L 252,549 L 251,548 L 251,542 L 250,541 L 250,532 L 251,531 L 251,526 L 252,525 L 252,522 L 253,521 L 253,519 L 254,518 L 254,517 L 255,516 L 255,515 L 256,514 L 256,513 L 258,511 L 258,510 L 260,508 L 260,507 L 267,500 L 268,500 L 271,497 L 272,497 L 273,496 L 274,496 L 275,495 L 276,495 L 277,494 L 278,494 L 279,493 L 281,493 L 282,492 L 285,492 L 286,491 L 303,491 L 304,492 L 307,492 L 308,493 L 310,493 L 311,494 L 312,494 L 313,495 L 314,495 L 315,496 L 316,496 L 317,497 L 318,497 L 321,500 L 322,500 L 323,501 L 324,501 L 325,502 L 327,502 L 328,503 L 333,503 L 334,502 L 336,502 L 337,501 L 338,501 L 339,500 L 340,500 L 342,498 L 342,497 L 344,495 L 344,494 L 345,493 L 345,491 L 346,490 L 346,484 L 345,483 L 345,481 L 344,480 L 344,479 L 343,478 L 343,477 L 341,475 L 340,475 L 337,472 L 336,472 L 334,470 L 333,470 L 331,468 L 330,468 L 329,467 L 328,467 L 327,466 L 326,466 L 325,465 L 324,465 L 323,464 L 321,464 L 320,463 L 319,463 L 318,462 L 315,462 L 314,461 L 312,461 L 311,460 L 307,460 L 306,459 L 299,459 L 298,458 L 289,458 L 288,459 L 281,459 L 280,460 L 276,460 L 275,461 L 272,461 L 271,462 L 270,462 L 269,463 L 267,463 L 266,464 L 265,464 L 264,465 L 262,465 L 261,466 L 260,466 L 259,467 L 258,467 L 256,469 L 255,469 L 254,470 L 253,470 L 250,473 L 249,473 L 244,478 L 243,478 L 241,480 L 241,481 L 235,487 L 235,488 L 233,490 L 233,491 L 231,493 L 231,494 L 229,496 L 229,497 L 228,498 L 228,499 L 227,500 L 227,501 L 226,502 L 226,503 L 225,504 L 225,506 L 224,507 L 224,508 L 223,509 L 223,511 L 222,512 L 222,515 L 221,516 L 221,519 L 220,520 L 220,525 L 219,526 L 219,548 L 220,549 L 220,554 L 221,555 L 221,559 L 222,560 L 222,563 L 223,564 L 223,566 L 224,567 L 224,569 L 225,570 L 225,571 L 226,572 L 226,574 L 227,575 L 227,576 L 228,577 L 228,578 L 229,579 L 229,581 L 230,582 L 230,583 L 232,585 L 232,586 L 233,587 L 233,588 L 234,589 L 234,590 L 236,592 L 236,593 L 238,595 L 238,596 L 240,598 L 240,599 L 244,603 L 244,604 L 261,621 L 262,621 L 266,625 L 267,625 L 270,628 L 271,628 L 273,630 L 274,630 L 275,631 L 276,631 L 278,633 L 279,633 L 280,634 L 281,634 L 282,635 L 283,635 L 284,636 L 283,637 L 281,637 L 280,636 L 279,636 L 278,635 L 276,635 L 275,634 L 274,634 L 273,633 L 272,633 L 271,632 L 270,632 L 269,631 L 268,631 L 267,630 L 266,630 L 265,629 L 264,629 L 262,627 L 261,627 L 260,626 L 259,626 L 257,624 L 256,624 L 254,622 L 253,622 L 250,619 L 249,619 L 244,614 L 243,614 L 231,602 L 231,601 L 226,596 L 226,595 L 224,593 L 224,592 L 221,589 L 221,588 L 220,587 L 220,586 L 218,584 L 218,583 L 217,582 L 217,581 L 216,580 L 216,579 L 215,578 L 215,577 L 214,576 L 214,575 L 213,574 L 213,573 L 212,572 L 212,570 L 211,569 L 211,568 L 210,567 L 210,565 L 209,564 L 209,562 L 208,561 L 208,558 L 207,557 L 207,554 L 206,553 L 206,549 L 205,548 L 205,539 L 204,538 L 204,525 L 205,524 L 205,516 L 206,515 L 206,511 L 207,510 L 207,507 L 208,506 L 208,503 L 209,502 L 209,501 L 210,500 L 210,498 L 211,497 L 211,495 L 212,494 L 212,493 L 213,492 L 213,491 L 214,490 L 214,489 L 215,488 L 215,487 L 216,486 L 216,485 L 218,483 L 218,482 L 219,481 L 219,480 L 222,477 L 222,476 L 225,473 L 225,472 L 238,459 L 239,459 L 242,456 L 243,456 L 245,454 L 246,454 L 248,452 L 249,452 L 250,451 L 251,451 L 252,450 L 253,450 L 254,449 L 255,449 L 256,448 L 257,448 L 258,447 L 259,447 L 260,446 L 262,446 L 263,445 L 264,445 L 265,444 L 267,444 L 268,443 L 271,443 L 272,442 L 275,442 L 276,441 L 280,441 L 281,440 L 289,440 L 290,439 L 306,439 L 307,440 L 313,440 L 314,441 L 324,441 L 325,440 L 326,440 L 327,439 L 328,439 L 332,435 L 332,434 L 333,433 L 333,432 L 334,431 L 334,429 L 335,428 L 335,421 L 334,420 L 334,418 L 333,417 L 333,416 L 328,411 L 327,411 L 326,410 L 325,410 L 324,409 L 320,409 L 319,408 L 313,408 L 312,407 L 282,407 L 281,408 L 275,408 L 274,409 L 270,409 L 269,410 L 265,410 L 264,411 L 261,411 L 260,412 L 258,412 L 257,413 L 255,413 L 254,414 L 252,414 L 251,415 L 249,415 L 248,416 L 247,416 L 246,417 L 244,417 L 243,418 L 242,418 L 241,419 L 240,419 L 239,420 L 238,420 L 237,421 L 236,421 L 234,423 L 233,423 L 232,424 L 231,424 L 230,425 L 229,425 L 227,427 L 226,427 L 224,429 L 223,429 L 219,433 L 218,433 L 214,437 L 213,437 L 202,448 L 202,449 L 198,453 L 198,454 L 195,457 L 195,458 L 192,461 L 192,462 L 191,463 L 191,464 L 189,466 L 189,467 L 188,468 L 188,469 L 187,470 L 187,471 L 186,472 L 186,473 L 184,475 L 184,477 L 183,478 L 183,479 L 182,480 L 182,481 L 181,482 L 181,483 L 180,484 L 180,486 L 179,487 L 179,489 L 178,490 L 178,492 L 177,493 L 177,495 L 176,496 L 176,499 L 175,500 L 175,503 L 174,504 L 174,509 L 173,510 L 173,516 L 172,517 L 172,545 L 173,546 L 173,552 L 174,553 L 174,558 L 175,559 L 175,562 L 176,563 L 176,566 L 177,567 L 177,569 L 178,570 L 178,572 L 179,573 L 179,576 L 180,577 L 180,578 L 181,579 L 181,581 L 182,582 L 182,583 L 183,584 L 183,586 L 184,587 L 184,588 L 185,589 L 185,590 L 186,591 L 186,592 L 187,593 L 187,594 L 188,595 L 188,596 L 189,597 L 189,598 L 190,599 L 190,600 L 191,601 L 191,602 L 193,604 L 193,605 L 195,607 L 195,608 L 197,610 L 197,611 L 199,613 L 199,614 L 202,617 L 202,618 L 206,622 L 206,623 L 214,631 L 214,632 L 215,633 L 216,633 L 226,643 L 227,643 L 230,646 L 231,646 L 233,648 L 232,649 L 231,649 L 230,648 L 229,648 L 227,646 L 226,646 L 225,645 L 224,645 L 223,644 L 222,644 L 220,642 L 219,642 L 216,639 L 215,639 L 213,637 L 212,637 L 208,633 L 207,633 L 190,616 L 190,615 L 186,611 L 186,610 L 183,607 L 183,606 L 181,604 L 181,603 L 179,601 L 179,600 L 177,598 L 177,597 L 176,596 L 176,595 L 174,593 L 174,592 L 173,591 L 173,590 L 172,589 L 172,588 L 171,587 L 171,586 L 170,585 L 170,584 L 169,583 L 169,582 L 168,581 L 168,580 L 167,579 L 167,577 L 166,576 L 166,575 L 165,574 L 165,572 L 164,571 L 164,569 L 163,568 L 163,566 L 162,565 L 162,563 L 161,562 L 161,559 L 160,558 L 160,555 L 159,554 L 159,550 L 158,549 L 158,544 L 157,543 L 157,533 L 156,532 L 156,516 L 157,515 L 157,506 L 158,505 L 158,500 L 159,499 L 159,495 L 160,494 L 160,491 L 161,490 L 161,487 L 162,486 L 162,484 L 163,483 L 163,481 L 164,480 L 164,478 L 165,477 L 165,475 L 166,474 L 166,473 L 167,472 L 167,470 L 168,469 L 168,468 L 169,467 L 169,466 L 170,465 L 170,464 L 171,463 L 171,462 L 172,461 L 172,460 L 173,459 L 173,458 L 175,456 L 175,455 L 176,454 L 176,453 L 178,451 L 178,450 L 180,448 L 180,447 L 183,444 L 183,443 L 186,440 L 186,439 L 206,419 L 207,419 L 211,415 L 212,415 L 214,413 L 215,413 L 217,411 L 218,411 L 220,409 L 221,409 L 223,407 L 224,407 L 225,406 L 226,406 L 227,405 L 228,405 L 230,403 L 231,403 L 232,402 L 233,402 L 234,401 L 236,401 L 237,400 L 238,400 L 239,399 L 240,399 L 241,398 L 242,398 L 243,397 L 245,397 L 246,396 L 248,396 L 249,395 L 251,395 L 252,394 L 254,394 L 255,393 L 258,393 L 259,392 L 262,392 L 263,391 L 266,391 L 267,390 L 270,390 L 271,389 L 273,389 L 274,388 L 275,388 L 280,383 L 280,382 L 281,381 L 281,380 L 282,379 L 282,368 L 281,367 L 281,366 L 280,365 L 280,364 L 275,359 L 274,359 L 273,358 L 272,358 L 271,357 L 262,357 L 261,358 L 258,358 L 257,359 L 254,359 L 253,360 L 251,360 L 250,361 L 247,361 L 246,362 L 244,362 L 243,363 L 241,363 L 240,364 L 238,364 L 237,365 L 235,365 L 234,366 L 233,366 L 232,367 L 230,367 L 229,368 L 228,368 L 227,369 L 225,369 L 224,370 L 223,370 L 222,371 L 221,371 L 220,372 L 219,372 L 218,373 L 217,373 L 216,374 L 215,374 L 214,375 L 213,375 L 212,376 L 211,376 L 209,378 L 208,378 L 207,379 L 206,379 L 204,381 L 203,381 L 201,383 L 200,383 L 198,385 L 197,385 L 195,387 L 194,387 L 191,390 L 190,390 L 186,394 L 185,394 L 174,405 L 173,405 L 173,406 L 163,416 L 163,417 L 159,421 L 159,422 L 156,425 L 156,426 L 153,429 L 153,430 L 151,432 L 151,433 L 149,435 L 149,436 L 148,437 L 148,438 L 146,440 L 146,441 L 145,442 L 145,443 L 144,444 L 144,445 L 143,446 L 143,447 L 142,448 L 142,449 L 141,450 L 141,451 L 140,452 L 140,453 L 139,454 L 139,455 L 138,456 L 138,457 L 137,458 L 137,459 L 136,460 L 136,462 L 135,463 L 135,465 L 134,466 L 134,467 L 133,468 L 133,470 L 132,471 L 132,473 L 131,474 L 131,477 L 130,478 L 130,480 L 129,481 L 129,485 L 128,486 L 128,489 L 127,490 L 127,495 L 126,496 L 126,503 L 125,504 L 125,540 L 126,541 L 126,548 L 127,549 L 127,555 L 128,556 L 128,560 L 129,561 L 129,564 L 130,565 L 130,568 L 131,569 L 131,572 L 132,573 L 132,576 L 133,577 L 133,579 L 134,580 L 134,582 L 135,583 L 135,585 L 136,586 L 136,588 L 137,589 L 137,590 L 138,591 L 138,593 L 137,594 L 136,593 L 136,592 L 134,590 L 134,589 L 132,587 L 132,586 L 131,585 L 131,584 L 129,582 L 129,581 L 128,580 L 128,579 L 127,578 L 127,577 L 126,576 L 126,575 L 125,574 L 125,573 L 124,572 L 124,571 L 123,570 L 123,568 L 122,567 L 122,566 L 121,565 L 121,564 L 120,563 L 120,561 L 119,560 L 119,559 L 118,558 L 118,556 L 117,555 L 117,553 L 116,552 L 116,550 L 115,549 L 115,546 L 114,545 L 114,543 L 113,542 L 113,539 L 112,538 L 112,535 L 111,534 L 111,530 L 110,529 L 110,524 L 109,523 L 109,517 L 108,516 L 108,502 L 107,501 L 107,491 L 108,490 L 108,477 L 109,476 L 109,470 L 110,469 L 110,464 L 111,463 L 111,459 L 112,458 L 112,455 L 113,454 L 113,451 L 114,450 L 114,448 L 115,447 L 115,445 L 116,444 L 116,442 L 117,441 L 117,439 L 118,438 L 118,436 L 119,435 L 119,433 L 120,432 L 120,431 L 121,430 L 121,428 L 122,427 L 122,426 L 123,425 L 123,424 L 124,423 L 124,422 L 125,421 L 125,420 L 126,419 L 126,418 L 127,417 L 127,416 L 128,415 L 128,414 L 129,413 L 129,412 L 130,411 L 130,410 L 131,409 L 131,408 L 133,406 L 133,405 L 134,404 L 134,403 L 136,401 L 136,400 L 138,398 L 138,397 L 141,394 L 141,393 L 143,391 L 143,390 L 147,386 L 147,385 L 152,380 L 152,379 L 167,364 L 168,364 L 174,358 L 175,358 L 178,355 L 179,355 L 182,352 L 183,352 L 185,350 L 186,350 L 188,348 L 189,348 L 190,347 L 191,347 L 193,345 L 194,345 L 195,344 L 196,344 L 198,342 L 199,342 L 200,341 L 201,341 L 202,340 L 203,340 L 204,339 L 205,339 L 206,338 L 207,338 L 208,337 L 209,337 L 210,336 L 212,336 L 213,335 L 214,335 L 215,334 L 216,334 L 217,333 L 219,333 L 220,332 L 222,332 L 223,331 L 225,331 L 226,330 L 228,330 L 229,329 L 231,329 L 232,328 L 235,328 L 236,327 L 239,327 L 240,326 L 243,326 L 244,325 L 247,325 L 248,324 L 253,324 L 254,323 L 261,323 L 262,322 L 275,322 L 276,321 L 288,321 L 289,322 L 301,322 L 302,323 L 308,323 L 309,324 L 314,324 L 315,325 L 319,325 L 320,326 L 323,326 L 324,327 L 327,327 L 328,328 L 330,328 L 331,329 L 334,329 L 335,330 L 336,330 L 337,331 L 339,331 L 340,332 L 342,332 L 343,333 L 345,333 L 346,334 L 347,334 L 348,335 L 349,335 L 350,336 L 351,336 L 352,337 L 354,337 L 355,338 L 356,338 L 357,339 L 358,339 L 359,340 L 360,340 L 361,341 L 362,341 L 363,342 L 364,342 L 366,344 L 367,344 L 368,345 L 369,345 L 370,346 L 371,346 L 373,348 L 374,348 L 376,350 L 377,350 L 379,352 L 380,352 L 382,354 L 383,354 L 386,357 L 387,357 L 391,361 L 392,361 L 400,369 L 401,369 L 408,376 L 408,377 L 415,384 L 415,385 L 419,389 L 419,390 L 422,393 L 422,394 L 424,396 L 424,397 L 426,399 L 426,400 L 428,402 L 428,403 L 430,405 L 430,406 L 431,407 L 431,408 L 432,409 L 432,410 L 433,411 L 433,412 L 435,414 L 435,415 L 436,416 L 436,417 L 437,418 L 437,420 L 438,421 L 438,422 L 439,423 L 439,424 L 440,425 L 440,427 L 441,428 L 441,429 L 442,430 L 442,432 L 443,433 L 443,435 L 444,436 L 444,438 L 445,439 L 445,441 L 446,442 L 446,445 L 447,446 L 447,448 L 448,449 L 448,450 L 453,455 L 454,455 L 455,456 L 456,456 L 457,457 L 461,457 L 462,458 L 463,458 L 464,457 L 467,457 L 468,456 L 470,456 L 472,454 L 473,454 L 475,452 L 475,451 L 477,449 L 477,448 L 478,447 L 478,437 L 477,436 L 477,433 L 476,432 L 476,430 L 475,429 L 475,427 L 474,426 L 474,424 L 473,423 L 473,421 L 472,420 L 472,418 L 471,417 L 471,416 L 470,415 L 470,413 L 469,412 L 469,411 L 468,410 L 468,409 L 467,408 L 467,407 L 466,406 L 466,404 L 465,403 L 465,402 L 464,401 L 464,400 L 463,399 L 463,398 L 461,396 L 461,395 L 460,394 L 460,393 L 459,392 L 459,391 L 458,390 L 458,389 L 456,387 L 456,386 L 455,385 L 455,384 L 453,382 L 453,381 L 451,379 L 451,378 L 449,376 L 449,375 L 446,372 L 446,371 L 444,369 L 444,368 L 440,364 L 440,363 L 434,357 L 434,356 L 417,339 L 416,339 L 410,333 L 409,333 L 406,330 L 405,330 L 402,327 L 401,327 L 398,324 L 397,324 L 395,322 L 394,322 L 392,320 L 391,320 L 390,319 L 389,319 L 387,317 L 386,317 L 385,316 L 384,316 L 382,314 L 381,314 L 380,313 L 379,313 L 378,312 L 377,312 L 376,311 L 375,311 L 374,310 L 373,310 L 372,309 L 371,309 L 370,308 L 369,308 L 368,307 L 367,307 L 366,306 L 365,306 L 364,305 L 362,305 L 361,304 L 360,304 L 359,303 L 358,303 L 357,302 L 355,302 L 354,301 L 353,301 L 352,300 L 350,300 L 349,299 L 347,299 L 346,298 L 344,298 L 343,297 L 340,297 L 339,296 L 337,296 L 336,295 L 333,295 L 332,294 L 329,294 L 328,293 L 325,293 L 324,292 L 319,292 L 318,291 L 313,291 L 312,290 L 305,290 L 304,289 L 295,289 L 294,288 Z" fill="black" /></svg>
